<svg xmlns="http://www.w3.org/2000/svg" viewBox="0 0 160 28" width="160" height="28">
<path d="M4,15 C30,15 50,14 76,14" fill="none" stroke="#8a9a7e" stroke-width="1.3" stroke-linecap="round"/>
<path d="M156,15 C130,15 110,14 84,14" fill="none" stroke="#8a9a7e" stroke-width="1.3" stroke-linecap="round"/>
<g transform="translate(22.0,14.0) rotate(-28.0)"><path d="M0,0 C4.8999999999999995,-5 10.5,-5 14,0 C10.5,2.25 4.8999999999999995,2.25 0,0 Z" fill="#dfe5d6" stroke="#8a9a7e" stroke-width="1.4"/><path d="M1.68,0 Q7.700000000000001,-0.75 12.88,-0.25" fill="none" stroke="#8a9a7e" stroke-width="0.9" opacity="0.8"/></g>
<g transform="translate(40.0,14.0) rotate(28.0)"><path d="M0,0 C4.8999999999999995,5 10.5,5 14,0 C10.5,-2.25 4.8999999999999995,-2.25 0,0 Z" fill="#dfe5d6" stroke="#8a9a7e" stroke-width="1.4"/><path d="M1.68,0 Q7.700000000000001,0.75 12.88,0.25" fill="none" stroke="#8a9a7e" stroke-width="0.9" opacity="0.8"/></g>
<g transform="translate(56.0,14.0) rotate(-28.0)"><path d="M0,0 C4.8999999999999995,-5 10.5,-5 14,0 C10.5,2.25 4.8999999999999995,2.25 0,0 Z" fill="#dfe5d6" stroke="#8a9a7e" stroke-width="1.4"/><path d="M1.68,0 Q7.700000000000001,-0.75 12.88,-0.25" fill="none" stroke="#8a9a7e" stroke-width="0.9" opacity="0.8"/></g>
<g transform="translate(138.0,14.0) rotate(152.0)"><path d="M0,0 C4.8999999999999995,5 10.5,5 14,0 C10.5,-2.25 4.8999999999999995,-2.25 0,0 Z" fill="#dfe5d6" stroke="#8a9a7e" stroke-width="1.4"/><path d="M1.68,0 Q7.700000000000001,0.75 12.88,0.25" fill="none" stroke="#8a9a7e" stroke-width="0.9" opacity="0.8"/></g>
<g transform="translate(120.0,14.0) rotate(208.0)"><path d="M0,0 C4.8999999999999995,-5 10.5,-5 14,0 C10.5,2.25 4.8999999999999995,2.25 0,0 Z" fill="#dfe5d6" stroke="#8a9a7e" stroke-width="1.4"/><path d="M1.68,0 Q7.700000000000001,-0.75 12.88,-0.25" fill="none" stroke="#8a9a7e" stroke-width="0.9" opacity="0.8"/></g>
<g transform="translate(104.0,14.0) rotate(152.0)"><path d="M0,0 C4.8999999999999995,5 10.5,5 14,0 C10.5,-2.25 4.8999999999999995,-2.25 0,0 Z" fill="#dfe5d6" stroke="#8a9a7e" stroke-width="1.4"/><path d="M1.68,0 Q7.700000000000001,0.75 12.88,0.25" fill="none" stroke="#8a9a7e" stroke-width="0.9" opacity="0.8"/></g>
<g transform="translate(80.0,14.0) rotate(0)"><ellipse cx="6.2" cy="0" rx="4.9" ry="3.1" transform="rotate(0.0)" fill="#eedcd3" stroke="#c7a662" stroke-width="1.2"/><ellipse cx="6.2" cy="0" rx="4.9" ry="3.1" transform="rotate(72.0)" fill="#eedcd3" stroke="#c7a662" stroke-width="1.2"/><ellipse cx="6.2" cy="0" rx="4.9" ry="3.1" transform="rotate(144.0)" fill="#eedcd3" stroke="#c7a662" stroke-width="1.2"/><ellipse cx="6.2" cy="0" rx="4.9" ry="3.1" transform="rotate(216.0)" fill="#eedcd3" stroke="#c7a662" stroke-width="1.2"/><ellipse cx="6.2" cy="0" rx="4.9" ry="3.1" transform="rotate(288.0)" fill="#eedcd3" stroke="#c7a662" stroke-width="1.2"/><circle r="2.1" fill="#f6ecd9" stroke="#c7a662" stroke-width="1.2"/><circle cx="1.3" cy="0.3" r="0.9" fill="#c7a662"/><circle cx="0.3" cy="1.3" r="0.9" fill="#c7a662"/><circle cx="-0.9" cy="0.9" r="0.9" fill="#c7a662"/><circle cx="-1.3" cy="-0.3" r="0.9" fill="#c7a662"/><circle cx="-0.3" cy="-1.3" r="0.9" fill="#c7a662"/><circle cx="0.9" cy="-0.9" r="0.9" fill="#c7a662"/></g>
</svg>